<svg xmlns="http://www.w3.org/2000/svg" enable-background="new -360.158 568.855 3000 3000" viewBox="-360.158 568.855 3000 3000" id="fashion-sale-offer"><path fill="#DCF4E6" d="M2231.335 2496.63c-1.679 16.287-4.442 32.377-8.292 48.17-.691 3.257-1.48 6.514-2.369 9.772-14.312 53.204-40.372 103.349-76.302 149.742-2.073 2.666-4.146 5.331-6.317 7.996-245.885 304.914-921.353 441.132-1468.006 213.311-5.034-2.073-10.068-4.245-15.103-6.416-45.801-19.742-90.615-42.051-134.146-67.023-210.152-120.722-347.062-285.566-418.133-459.098 0 0-.099 0-.099-.099-3.553-8.785-6.91-17.57-10.167-26.454-110.751-299.879-27.54-620.289 211.83-781.284 2.764-1.974 5.627-3.85 8.588-5.626 60.015-38.891 129.506-67.912 207.98-84.298 17.768-3.751 35.141-6.514 52.316-8.489 3.258-.493 6.515-.79 9.772-1.086 254.078-25.664 442.415 128.52 596.303 291.588 2.369 2.467 4.639 4.935 6.91 7.304 52.316 55.672 100.486 112.233 146.09 162.575 2.172 2.467 4.442 4.935 6.614 7.403 104.829 115.096 195.345 196.037 287.244 158.231C1963.043 1974.261 2276.149 2060.829 2231.335 2496.63zM303.992 2757.834c-145.541-125.767-276.882 75.612-143.073 200.707C294.728 3083.636 657.157 3063.015 303.992 2757.834z"></path><path fill="#FFF" d="M2223.043,2544.801c-0.691,3.257-1.48,6.514-2.369,9.772c-217.752-72.552-593.835-116.082-1214.421,17.965
			c-388.125,83.706-682.476,33.265-874.762-150.038c-9.97-9.575-19.544-19.347-28.823-29.416c0,0-0.099,0-0.099-0.099
			c-3.553-8.785-6.91-17.57-10.167-26.454c14.313,16.978,29.613,33.167,45.9,48.762
			c189.818,180.934,481.109,230.585,865.779,147.571C1625.753,2428.719,2003.612,2472.151,2223.043,2544.801z"></path><path fill="#FFF" d="M2144.371 2704.315c-2.073 2.666-4.146 5.331-6.317 7.996-209.363-101.572-521.087-155.961-934.679 27.145-203.045 89.924-380.722 148.755-533.327 186.166-5.034-2.073-10.068-4.245-15.103-6.416 154.875-37.115 336.204-96.439 544.481-188.732C1617.56 2545.195 1932.936 2601.065 2144.371 2704.315zM1338.805 1954.617c-85.088 83.607-204.822 152.704-373.023 178.763-32.476 4.936-64.063 7.502-94.761 7.502-112.529 0-212.719-33.759-298.793-100.684-147.373-114.601-226.735-306.986-267.996-454.951 2.764-1.974 5.627-3.85 8.588-5.626C353.488 1726.5 431.863 1918.589 578.25 2032.4c107.495 83.508 237.297 114.207 386.052 91.207 166.029-25.763 283.987-93.971 367.89-176.393C1334.363 1949.682 1336.633 1952.15 1338.805 1954.617z"></path><path fill="#FFF" d="M1186.101,1784.64c-65.148,91.405-160.501,167.708-297.904,171.162h-6.318
			c-61.792,0-115.983-22.999-161.094-68.603c-89.924-90.812-130-258.322-147.669-400.365c3.258-0.493,6.515-0.79,9.772-1.086
			c17.372,140.464,56.659,305.506,144.905,394.541c44.617,45.11,98.71,67.024,160.107,65.642
			c134.344-3.454,227.624-78.573,291.291-168.595C1181.561,1779.803,1183.831,1782.271,1186.101,1784.64z"></path><polygon fill="#11405C" points="586.428 1979.499 690.708 1917.781 1643.432 1917.781 1579.901 1979.499"></polygon><polygon fill="#D7A28E" points="898.726 1537.084 788.289 1662.135 925.761 1777.99 1030.885 1615.517"></polygon><path fill="#D7A28E" d="M844.246,1662.135l15.357-258.88l-63.49-7.042c0,0-102.054,307.732-65.563,408.193
					c36.49,100.463,195.211-26.416,195.211-26.416L844.246,1662.135z"></path><path fill="#C18C7C" d="M849.61 1537.084c0 0 13.322 205.698-2.065 205.698C832.157 1742.782 849.61 1537.084 849.61 1537.084zM857.352 1441.377l-73.299-10.425c7.221-21.662 12.057-34.741 12.057-34.741l63.49 7.085L857.352 1441.377z"></path><path fill="#FFC439" d="M1086.751,1389.628l-13.355-49.626l-34.828,6.638c0,0-146.066,158.474-170.347,176.685
					c-24.281,18.21,112.307,105.623,125.962,105.623C1007.838,1628.948,1086.751,1389.628,1086.751,1389.628z"></path><path fill="#DBA12C" d="M1057.767,1433.542l-64.035,195.305c-8.515-0.885-50.683-25.887-84.404-51.636L1057.767,1433.542z"></path><path fill="#FFC439" d="M1266.837,1340.002l49.144,6.638c0,0,125.307,104.768,142.652,112.053
					c0,0-54.324,118.978-73.142,128.083c-18.818,9.106-104.717-104.409-107.752-106.229
					C1274.703,1478.725,1266.837,1340.002,1266.837,1340.002z"></path><path fill="#FFC439" d="M1073.397,1340.002c0,0,180.49-4.856,193.44,0c12.95,4.856,131.513,595.909,117.506,689.932
					c-14.008,94.023-531.1,64.686-526.645-15.787C862.151,1933.676,1056.254,1340.346,1073.397,1340.002z"></path><path fill="#DBA12C" d="M1384.321,2029.952c-13.965,94.008-531.08,64.648-526.652-15.804
					c1.635-28.747,27.385-122.891,60.697-232.159c11.104,40.191,30.11,105.589,44.143,134.814
					c21.05,43.666,296.195,33.993,331.209,17.779c34.947-16.144-65.738-234.681-75.275-257.706
					c-7.153-17.166,52.182-139.65,82.7-200.619C1339.565,1657.938,1394.062,1964.487,1384.321,2029.952z"></path><circle cx="1178.23" cy="1453.513" r="11.561" fill="#009444"></circle><path fill="#009444" d="M1179.884 1582.252c0 6.385-5.177 11.562-11.561 11.562-6.385 0-11.562-5.177-11.562-11.562 0-6.384 5.177-11.561 11.562-11.561C1174.708 1570.691 1179.884 1575.867 1179.884 1582.252zM1168.323 1721.459c0 6.385-5.177 11.561-11.562 11.561-6.384 0-11.561-5.176-11.561-11.561 0-6.385 5.177-11.561 11.561-11.561C1163.147 1709.898 1168.323 1715.074 1168.323 1721.459zM1160.973 1858.497c0 6.385-5.176 11.562-11.561 11.562-6.385 0-11.561-5.177-11.561-11.562 0-6.384 5.176-11.561 11.561-11.561C1155.797 1846.936 1160.973 1852.113 1160.973 1858.497z"></path><circle cx="1142.062" cy="1995.535" r="11.561" fill="#009444"></circle><path fill="#009444" d="M1159.927,1365.314c0.679-5.655-86.379,517.511-89.242,717.521l7.367-4.01
						C1078.052,2078.825,1141.666,1517.622,1159.927,1365.314z"></path><path fill="#D7A28E" d="M1123.086,1228.411l0.89,95.889c0,0-11.212,40.452,45.979,40.944c57.19,0.491,48.1-37.845,48.1-37.845
							l-12.061-98.988H1123.086z"></path><path fill="#C18C7C" d="M1218.054,1327.398l-12.061-98.988h-82.907l0.298,32.189c1.568,2.254,26.222,22.992,71.049,13.691
							c1.59-0.33,3.259-0.053,4.882-0.02c0.976,0.02,2.029,0.186,2.724,0.938c1.505,1.628,0.95,4.481-0.132,6.171
							c-1.254,1.956-3.335,3.325-5.341,4.407c-2.221,1.198-4.596,2.094-7.001,2.848c-14.888,4.664-30.408,7.336-45.918,8.797
							c-6.625,0.624-13.264,1.027-19.91,1.292l0.237,25.575c0,0-11.212,40.452,45.98,40.944
							C1227.145,1365.735,1218.054,1327.398,1218.054,1327.398z"></path><path fill="#009444" d="M1090.54,1339.658c0.454-13.006,7.257-49.699,19.61-37.941c12.353,11.758,94.459-5.483,113.11-2.29
							c18.651,3.193,22.767,35.759,24.026,44.805s-60.549,48.8-93.158,50.006C1121.52,1395.443,1090.54,1339.658,1090.54,1339.658z"></path><path fill="#D7A28E" d="M1072.679,1099.344c0,0-12.611-11.402-30.135-3.517c-19.138,8.612,5.393,57.217,17.802,57.215
										c11.981-0.002,14.258-6.632,14.004-15.95C1073.915,1121.128,1072.679,1099.344,1072.679,1099.344z"></path><path fill="#11405C" d="M1052.641,1104.974c5.815,3.886,16.896,17.647,10.92,28.986c0,0-0.414-7.348-4.601-11.573
										l-10.098-3.877l9.763-1.317L1052.641,1104.974z"></path><path fill="#D7A28E" d="M1251.587,1099.344c0,0,12.611-11.402,30.134-3.517c19.138,8.612-5.393,57.217-17.802,57.215
										c-11.981-0.002-14.258-6.632-14.004-15.95C1250.351,1121.128,1251.587,1099.344,1251.587,1099.344z"></path><path fill="#11405C" d="M1271.626,1104.974c-5.815,3.886-16.897,17.647-10.92,28.986c0,0,0.414-7.348,4.601-11.573
										l10.098-3.877l-9.763-1.317L1271.626,1104.974z"></path><path fill="#D7A28E" d="M1260.25,1040.798h-188.202c-7.493,32.753-11.602,218.267,93.769,224.485
										C1272.317,1271.569,1263.345,1060.088,1260.25,1040.798z"></path><path fill="#11405C" d="M1057.07 1073.433c1.878 1.878-.234 40.367 12.081 36.169 12.315-4.198 8.268-48.747 8.268-48.747s56.251 31.599 81.746 10.555c0 0 57.143 27.923 90.732-13.355 0 0-2.106 47.603 6.797 50.162 8.904 2.559 33.584-56.434 18.711-79.906 0 0-6.954-67.38-66.858-53.621 0 0-6.983-39.117-70.079-33.994-69.765 5.666-60.24 43.706-60.24 43.706s-26.919 2.006-36.422 38.85C1035.492 1047.735 1057.07 1073.433 1057.07 1073.433zM1167.461 1133.612c-.134.014 13.35 34.188-2.574 38.191-.519.149-.469.808.14 1.506s1.521 1.046 2.069 1.024C1190.529 1173.373 1168.056 1133.551 1167.461 1133.612z"></path><path fill="#11405C" d="M1106.408 1099.218c-.949.021-1.889.044-2.296-.82-.406-.86-.042-1.889.819-2.295 31.546-14.977 45.826 4.729 45.967 4.928C1151.441 1101.808 1133.744 1098.618 1106.408 1099.218zM1229.568 1097.195c.949.02 1.889.044 2.296-.82.406-.86.042-1.889-.819-2.295-31.546-14.977-45.826 4.729-45.967 4.928C1184.536 1099.785 1202.232 1096.595 1229.568 1097.195z"></path><path fill="#FCFAF7" d="M1202.983,1196.705c0,0-28.372,17.335-63.978,5.837
										C1133.089,1217.474,1177.5,1248.963,1202.983,1196.705z"></path><path fill="#11405C" d="M1218.446 1128.341c-.136 6.88-3.542 12.465-8.515 13.079-5.586.748-10.968-5.382-11.989-13.556-1.022-8.243 2.725-15.464 8.311-16.144 2.861-.341 5.722 1.089 7.902 3.609-2.452 1.091-4.019 4.02-3.679 7.153.477 3.815 3.542 6.54 6.812 6.132C1217.696 1128.543 1218.105 1128.477 1218.446 1128.341zM1127.435 1143.395c-5.654.682-11.036-5.45-11.99-13.624-1.022-8.242 2.657-15.396 8.311-16.146 2.248-.272 4.496.546 6.403 2.249-1.839 1.362-2.929 3.883-2.589 6.607.409 3.815 3.474 6.54 6.744 6.132.545-.07 1.022-.204 1.499-.409C1136.495 1136.037 1132.816 1142.645 1127.435 1143.395z"></path><path fill="#C18C7C" d="M1168.612,1238.851c2.784-0.346,4.545-0.981,4.73-1.051c0.689-0.258,1.034-1.016,0.781-1.703
										c-0.258-0.687-1.027-1.036-1.705-0.783c-0.11,0.045-11.352,4.035-22.965-3.756c-0.624-0.394-1.441-0.235-1.846,0.365
										c-0.405,0.61-0.24,1.436,0.364,1.846C1156.045,1239.177,1163.841,1239.44,1168.612,1238.851z"></path><g><path fill="#C18C7C" d="M820.911,1347.677c0,0,61.552-18.629,65.827-16.164c0,0,6.481,8.775-3.576,19.883
						c-5.433,6-35.94,21.943-35.94,21.943L820.911,1347.677z"></path><path fill="#2F627C" d="M794.63,1426.551l56.225,2.584c13.859,0.629,25.689-9.936,26.584-23.771
						c2.165-33.091,6.006-91.393,8.517-126.207c0.713-9.904-4.287-18.755-12.096-23.527l-10.372,0.432
						c-9.482,0.409-17.967,6.05-21.984,14.657l-57.438,122.849C778.164,1406.193,783.582,1420.318,794.63,1426.551z"></path><path fill="#2F627C" d="M946.853,1222.315c18.029,7.66,26.472,29.391,20.483,49.228l0,0
						c-5.998,19.839-25.07,33.26-44.319,29.651l-40.741-7.624l26.433-87.465L946.853,1222.315z"></path><path fill="#FFC439" d="M695.102,1060.854l222.305,139.547l16.539,10.382c5.5,3.456,8.303,9.906,7.136,16.29
						c-1.944,10.59-4.781,22.302-8.457,34.472c-3.721,12.304-7.895,23.74-12.19,33.711c-2.525,5.866-8.292,9.667-14.678,9.616
						l-19.729-0.167l-263.951-2.194L695.102,1060.854z"></path><path fill="#DBA12C" d="M590.959,1161.251c-20.165,66.729-6.232,129.974,31.113,141.26c32.509,9.825,72.038-22.93,95.03-75.579
						c3.441-7.85,6.502-16.146,9.121-24.802c3.445-11.415,5.897-22.717,7.397-33.69c7.319-53.158-7.547-98.222-38.518-107.584
						C657.756,1049.569,611.131,1094.512,590.959,1161.251z"></path><path fill="#2F627C" d="M658.851,1177.58c-4.854,16.066,4.225,33.019,20.29,37.876l37.961,11.475
						c3.441-7.85,6.502-16.146,9.121-24.802c3.445-11.415,5.897-22.717,7.397-33.69l-36.904-11.152
						c-8.028-2.42-16.293-1.364-23.139,2.307C666.727,1163.268,661.279,1169.556,658.851,1177.58z"></path></g><g><path fill="#D7A28E" d="M795.53,1309.191c16.951-1.388,66.925,11.94,66.925,11.94s1.653,9.174-0.272,12.074
					c-3.129,4.713-4.92,6.95-16.328,6.003c7.703,2.104,17.674,5.927,17.674,5.927s-1.632,10.94-4.356,13.136
					c-3.647,2.939-10.592,4.093-17.763,3.256c5.292,2.066,14.443,5.038,14.443,5.038s-0.235,10.344-3.262,12.111
					c-5.757,3.362-16.499,3.095-26.307,1.715c6.946,1.991,15.587,5.194,15.587,5.194s-0.866,10.069-3.573,11.744
					c-10.521,6.508-55.72,0.802-55.72,0.802c-9.865-8.991-20.71-33.936-14.902-45.552
					C779.242,1329.445,788.846,1309.749,795.53,1309.191z"></path><path fill="#C18C7C" d="M804.063 1333.253c-.018-.274 2.36-.716 6.236-.736 3.868-.014 9.205.386 15.006 1.326 11.617 1.857 20.711 4.778 20.551 5.366-.156.606-9.421-1.322-20.901-3.156-5.739-.929-10.949-1.568-14.732-1.955C806.441 1333.716 804.08 1333.595 804.063 1333.253zM801.719 1355.014c.01-.292 2.292-.491 5.961-.298 3.666.193 8.694.798 14.185 1.766 10.988 1.93 19.683 4.451 19.545 5.046-.139.61-9.016-.926-19.93-2.842-5.323-.913-10.137-1.739-13.973-2.397C803.932 1355.699 801.707 1355.339 801.719 1355.014zM801.719 1376.441c.102-.61 6.204-.102 13.63 1.132s13.364 2.73 13.263 3.339c-.101.609-6.204.102-13.63-1.132C807.556 1378.545 801.618 1377.051 801.719 1376.441z"></path></g><g><rect width="214.53" height="214.53" x="708.748" y="1875.073" fill="#009444" transform="rotate(173.477 815.991 1982.391)"></rect><path fill="#CDEEFF" d="M793.254,2092.656l-6.482-56.714l6.822,4.081l3.142-5.22l6.021-2.931l7.438,7l2.602-10.767
				l11.429,16.779l4.409-15.598l4.777,5.812l4.113-9.819c0,0,6.757,43.591,10.02,61.172
				C829.546,2089.406,811.232,2089.575,793.254,2092.656z" opacity=".5"></path><polygon fill="#DBA12C" points="910.403 1863.586 856.618 1860.815 666.174 1882.583 697.261 1887.948"></polygon><polygon fill="#097C3A" points="666.162 1882.57 689.829 2089.629 696.026 2091.857 707.975 2096.182 721.638 2101.099 697.276 1887.964"></polygon><path fill="#CDEEFF" d="M826.623,1873.162l7.299,63.851l-6.824-4.081l-3.143,5.22l-6.021,2.931l-7.438-7.002
				l-2.602,10.767L792.9,1911.79l-0.843,31.877l-4.777-5.81l-4.113,9.817c0,0-9.966-64.293-11.538-68.226l-15.28-6.106l14.974,0.157
				l0.159-1.886l31.464-3.597L826.623,1873.162z" opacity=".5"></path><polygon fill="#CDEEFF" points="702.085 1884.551 686.987 1886.073 689.834 1917.856 686.865 1914.082 686.055 1915.484 683.467 1913.025 681.516 1914.881 678.157 1912.361 674.926 1884.089 689.891 1880.896 688.729 1881.964 691.166 1882.245 693.194 1884.118" opacity=".5"></polygon><polygon fill="#CDEEFF" points="696.026 2091.857 707.975 2096.182 705.164 2076.601 703.119 2080.952 700.898 2073.724 698.662 2076.091 697.551 2070.741 693.747 2065.02" opacity=".5"></polygon><path fill="#CDEEFF" d="M866.862,1861.341l-17.252,2.166l4.326,1.033l-1.296,0.928c0,0,5.002,0.83,4.585,0.878
				c-0.414,0.047-3.217,1.287-2.814,1.131c0.403-0.155,6.873-0.599,6.873-0.599l0.093,0.815l26.358-5.275L866.862,1861.341z" opacity=".5"></path></g><g><rect width="292.84" height="292.84" x="1060.03" y="1801.151" fill="#009444" transform="rotate(-175.487 1206.442 1947.563)"></rect><path fill="#CDEEFF" d="M1147.12,2089.423l6.141-77.678l8.074,7.251l5.574-6.172l8.832-2.352l8.135,11.323
				l6.302-13.744l10.925,25.467l9.985-19.745l4.88,9.035l8.077-12.08c0,0-2.342,60.168-2.566,84.575
				C1196.592,2094.555,1172.012,2089.995,1147.12,2089.423z" opacity=".5"></path><polygon fill="#DBA12C" points="1363.952 1813.145 1292.618 1795.373 1031.778 1774.755 1072.023 1790.068"></polygon><polygon fill="#097C3A" points="1031.765 1774.734 1009.347 2058.33 1017.067 2062.936 1031.944 2071.854 1048.965 2082.014 1072.04 1790.094"></polygon><path fill="#CDEEFF" d="M1249.203,1804.074l-6.913,87.453l-8.075-7.252l-5.575,6.173l-8.832,2.352l-8.135-11.325
				l-6.299,13.744l-11.449-48.209l-9.463,42.487l-4.882-9.032l-8.077,12.077c0,0,3.454-88.742,2.377-94.422l-18.875-12.175
				l20.02,4.125l0.706-2.486l43.095,3.407L1249.203,1804.074z" opacity=".5"></path><polygon fill="#CDEEFF" points="1079.374 1786.778 1058.748 1784.871 1054.256 1828.196 1051.264 1822.364 1049.813 1824.031 1046.988 1820.06 1043.89 1822.036 1040.048 1817.782 1043.109 1779.06 1063.992 1778.694 1062.156 1779.822 1065.348 1780.835 1067.576 1783.874" opacity=".5"></polygon><polygon fill="#CDEEFF" points="1017.067 2062.936 1031.944 2071.854 1033.297 2044.885 1029.42 2050.179 1028.334 2039.916 1024.719 2042.502 1024.629 2035.044 1021.028 2026.385" opacity=".5"></polygon><path fill="#CDEEFF" d="M1306.205,1798.756l-23.68-1.608l5.525,2.515l-1.979,0.904c0,0,6.484,2.42,5.914,2.375
				c-0.568-0.045-4.647,0.883-4.066,0.779c0.581-0.101,9.365,0.995,9.365,0.995l-0.088,1.115l36.693-0.176L1306.205,1798.756z" opacity=".5"></path></g><rect width="993.432" height="1217.902" x="586.39" y="1979.576" fill="#91C4F6"></rect><path fill="#549BEC" d="M883.483 2184.852c1.312 27.331-13.45 50.247-32.972 51.184-19.522.938-36.411-20.459-37.723-47.79-1.312-27.331 13.45-50.247 32.972-51.183C865.281 2136.125 882.171 2157.521 883.483 2184.852zM1327.967 2184.988c1.272 26.503-13.043 48.724-31.973 49.633-18.931.909-35.308-19.839-36.58-46.342-1.273-26.503 13.043-48.724 31.973-49.633S1326.695 2158.485 1327.967 2184.988z"></path><g><path fill="#CDEEFF" d="M828.389,2203.498c-7.151,78.004-14.304,156.008-21.455,234.012
			c-6.144,67.01-15.545,134.877-12.769,202.296c4.992,121.22,71.453,218.758,187.15,259.621
			c58.691,20.729,122.136,24.78,183.781,19.302c46.174-4.104,100.241-12.312,126.363-55.62
			c29.609-49.091-7.152-93.324-42.616-126.816c-41.491-39.184-133.826-67.429-135.398-132.938
			c-1.076-44.859,30.975-81.207,57.266-113.916c21.63-26.91,41.948-54.706,60.304-83.963
			c33.064-52.699,86.818-132.365,74.345-197.901c-3.222-16.929-30.256-15.033-26.997,2.088
			c10.588,55.63-37.005,127.006-65.094,173.261c-29.517,48.606-69.093,89.375-99.544,137.016
			c-22.914,35.848-37.189,81.682-18.892,122.69c18.303,41.023,62.86,58.737,97.515,82.729
			c24.382,16.881,48.295,37.299,66.279,60.986c30.057,39.589,11.01,77.52-32.193,94.011c-54.045,20.629-127.259,17.324-182.991,7.4
			c-127.365-22.68-214.812-113.179-222.026-243.723c-3.833-69.346,6.435-139.503,12.757-208.452
			c6.935-75.641,13.87-151.281,20.805-226.921C856.555,2191.444,829.979,2186.154,828.389,2203.498L828.389,2203.498z"></path></g><polygon fill="#549BEC" points="1579.901 3197.478 1636.596 3131.306 1693.293 3113.205 1643.432 1917.781 1579.901 1979.499"></polygon><polygon fill="#CDEEFF" points="1693.293 3113.205 1636.596 3131.306 1603.574 1956.429 1643.432 1917.781" opacity=".1"></polygon><g><path fill="#009444" d="M1781.964,1636.359l-25.329,16.94l22.983,224.14l19.181,182.076l-432.499,39.71l-15.109-182.451
				l-18.062-224.592l-28.023-12.041l-118.457-49.317c0,0,24.586-139.753,106.521-222.968
				c34.113-35.649,79.215-57.752,119.498-71.986c0.787-0.072,0.787-0.072,1.544-0.142c2.372-0.979,5.494-2.149,7.9-3.132
				c36.334-11.464,69.172-16.975,84.469-19.142c0,0,1.661-0.153,5.616-0.516c3.258-0.299,5.646-0.518,5.646-0.518
				c15.438-0.654,47.912-1.14,85.755,3.514c3.359,0.453,5.796,1.112,9.064,1.574c42.01,5.916,90.547,20.185,131.458,48.945
				c95.625,66.912,145.253,199.852,145.253,199.852L1781.964,1636.359z"></path><path fill="#FFC439" d="M1662.738,1518.46l-272.389,72.718c-4.078,1.089-6.501,5.277-5.412,9.355l18.993,71.145
					c1.089,4.078,5.277,6.501,9.355,5.413l272.388-72.718c4.078-1.089,6.502-5.277,5.413-9.355l-18.993-71.146
					C1671.004,1519.795,1666.816,1517.372,1662.738,1518.46z"></path><path fill="#DBA12C" d="M1478.162 1643.111c-11.532 3.079-22.052-.587-25.014-11.043l11.93-3.185c1.508 4.369 5.235 6.526 10.404 5.147 5.25-1.401 7.607-5.014 6.546-8.989-3.206-12.011-29.903 2.87-35.195-17.27-2.676-10.022 3.823-18.232 15.275-21.288 11.372-3.036 20.715.689 24.106 10.518l-12.246 3.269c-1.215-3.594-4.922-5.672-9.715-4.477-4.416 1.008-7.104 4.027-5.894 8.559 2.972 11.133 29.788-2.67 35.011 16.894C1495.704 1629.995 1490.806 1639.735 1478.162 1643.111zM1538.497 1615.077l-22.107 5.902-.834 11.553-11.692 3.121 5.121-60.918 12.964-3.461 34.8 50.261-11.769 3.142L1538.497 1615.077zM1518.867 1585.898l-1.834 25.367 16.065-4.289L1518.867 1585.898zM1560.542 1561.058l12.462 46.681 18.292-4.884 2.356 8.829-29.425 7.855-14.819-55.509L1560.542 1561.058zM1620.522 1554.671l-21.075 5.626 3.715 13.918 18.689-4.99 2.356 8.827-18.689 4.989 3.928 14.713 21.075-5.626 2.42 9.066-32.208 8.598-14.84-55.59 32.208-8.598L1620.522 1554.671z"></path><polygon fill="#097C3A" points="1351.191 1916.773 1333.129 1692.182 1305.106 1680.141 1354.424 1579.583"></polygon><polygon fill="#097C3A" points="1780.01 1877.402 1756.932 1653.271 1782.293 1636.328 1715.462 1546.435"></polygon><polygon fill="#097C3A" points="1505.181 2086.472 1422.821 2094.034 1435.019 2049.802 1436.945 2070.783 1452.891 1969.274 1466.221 2044.5 1471.992 2026.098"></polygon><path fill="#DBA12C" d="M1613.621,1327.955c-2.882,29.615-42.8,56.083-94.461,60.826c-51.63,4.74-96.426-13.949-103.989-42.606
				c2.372-0.981,5.497-2.119,7.906-3.07c36.329-11.527,69.169-17.008,84.463-19.206c0,0,1.66-0.153,5.616-0.516
				c3.258-0.299,5.646-0.518,5.646-0.518c15.441-0.624,47.912-1.14,85.761,3.577
				C1607.919,1326.864,1610.353,1327.492,1613.621,1327.955z"></path><path fill="#097C3A" d="M1604.563,1326.443c-0.659,27.645-37.485,53.006-85.851,57.447
				c-48.399,4.444-89.889-13.728-95.635-40.785c36.329-11.527,69.169-17.008,84.463-19.206c0,0,1.66-0.153,5.616-0.516
				c3.258-0.299,5.646-0.518,5.646-0.518C1534.242,1322.242,1566.714,1321.726,1604.563,1326.443z"></path><path fill="#2F627C" d="M1608.677,1326.334c-0.844,2.803-4.611,8.75-4.611,8.75l-6.128,10.987l-164.509,15.18
			c-3.341-3.042-6.297-9.538-6.297-9.538s-5.346-8.641-6.229-9.124c22.702-13.016,51.684-22.548,83.892-26.377l-0.994-10.44
			c-10.595-0.865-20.375-6.689-26.45-15.185c-3.668-5.324-6.131-11.577-6.719-18.188c-0.293-2.69-0.281-5.356,0.249-8.082
			c1.883-16.767,15.432-30.738,32.891-32.287c17.875-1.615,33.571,9.615,38.615,25.718l-18.086,1.702
			c-3.661-6.658-10.807-10.833-18.87-10.053c-7.952,0.682-14.446,6.101-16.776,13.295c-1.023,2.48-1.349,5.223-1.073,8.117
			c0.719,8.777,7.029,15.649,15.291,17.453c1.8,0.558,4.05,0.636,6.121,0.397c0.824-0.035,5.589,1.892,5.589,1.892l1.437,1.246
			l2.109,23.145C1551.849,1312.67,1583.179,1317.073,1608.677,1326.334z"></path><path fill="#D7A28E" d="M1544.161,1297.504c0,0-8.055-18.403-27.582,0.221c-19.526,18.628-9.836,33.883-1.227,32.375
					s14.246-1.833,19.731-15.64c0,0,0.95,12.885,10.855,12.635c9.905-0.253,15.793-8.154,15.793-8.154s-1.523,11.619,3.033,13.819
					c4.556,2.2,16.885-1.124,22.682-12.623c0,0,2.471,12.925,16.544,6.156c9.41-4.527,11.329-8.351,11.329-8.351l15.472,3.358
					c0,0-4.41-26.909-32.765-20.784c0,0-10.332-15.675-25.63,0.177C1572.398,1300.695,1560.327,1277.92,1544.161,1297.504z"></path><path fill="#C18C7C" d="M1544.194 1297.746c.606.604-2.185 4.059-4.607 8.791-2.506 4.708-3.641 8.912-4.388 8.854-.833-.017-.888-4.989 1.864-10.169C1539.753 1300.006 1543.725 1297.207 1544.194 1297.746zM1572.449 1300.099c.272.315-.377 1.34-1.328 2.993-.96 1.656-2.225 3.984-3.604 6.599-2.759 5.228-5.04 9.538-5.786 9.252-.724-.27.404-5.146 3.271-10.584 1.431-2.713 3.06-5.027 4.523-6.492C1570.99 1300.39 1572.212 1299.814 1572.449 1300.099zM1598.027 1300.518c.241.36-.608 1.319-1.71 2.965-1.1 1.665-2.429 4.089-3.7 6.921-2.562 5.653-4.225 10.542-5.011 10.361-.747-.148-.302-5.513 2.422-11.543 1.347-3.006 3.112-5.538 4.76-7.047C1596.461 1300.663 1597.843 1300.22 1598.027 1300.518z"></path></g><g><path fill="#F2CD33" d="M1527.475,1061.934c6.948,40.13-19.952,78.295-60.083,85.242c-40.13,6.948-78.295-19.952-85.242-60.083
			c-6.948-40.13,19.952-78.294,60.082-85.242C1482.363,994.903,1520.527,1021.803,1527.475,1061.934z"></path><path fill="#DBA12C" d="M1456.939,1102.517c-5.294,0.388-11.421-1.013-15.881-3.929l3.286-7.422
				c4.554,2.463,8.931,3.901,13.539,3.104c5.542-0.959,7.8-4.162,7.002-8.767c-1.95-11.262-24.87-5.623-27.646-21.66
				c-1.373-7.932,2.601-14.417,10.043-17.112l-1.507-8.703l6.824-1.181l1.478,8.532c5.576-0.264,9.785,1.732,13.517,4.509
				l-4.042,6.587c-3.659-2.353-6.582-3.517-10.677-2.809c-4.608,0.798-7.007,3.674-6.239,8.109
				c1.772,10.237,24.619,4.172,27.602,21.403c1.403,8.102-2.342,14.902-10.518,17.899l1.521,8.786l-6.824,1.181L1456.939,1102.517z"></path><path fill="#FFC439" d="M1480.681,2386.146l-110.444-54.508l-38.014,39.401l-104.056,210.736l14.928,7.436l110.412,54.476
				l14.943,7.364l103.984-210.751L1480.681,2386.146z M1408.123,2393.902c-6.479-3.194-9.083-11.066-5.929-17.539
				c3.239-6.506,11.086-9.23,17.629-5.998c6.442,3.186,9.193,11.09,5.987,17.627
				C1422.541,2394.467,1414.666,2397.135,1408.123,2393.902z"></path><path fill="#DBA12C" d="M1372.121,2448.068l4.263-8.66l14.969,7.42l-4.19,8.676c11.65,9.138,13.407,22.435,5.541,38.255
					l-1.764,3.664l-17.413-8.571l2.356-4.851c4.16-8.354,2.388-13.198-3.448-16.028c-5.82-2.902-10.726-1.37-14.881,6.96
					c-11.839,24.012,23.517,42.932,6.95,76.364c-7.821,15.78-19.721,22.616-34.028,18.844l-4.2,8.547l-15.047-7.412l4.206-8.571
					c-11.868-9.185-13.48-22.627-5.645-38.479l4.006-7.983l17.261,8.563l-4.515,9.137c-4.087,8.369-1.937,13.218,3.899,16.048
					c5.856,2.909,11.026,1.736,15.151-6.625c11.887-24.053-23.474-42.948-6.964-76.292
					C1346.358,2451.354,1357.836,2444.554,1372.121,2448.068z"></path><path fill="#F2CD33" d="M313.627,1398.375l69.532,168.295c0,0,125.178-14.491,126.328-20.185
			c1.151-5.693-32.762-185.858-32.762-185.858L313.627,1398.375z"></path><path fill="#DBA12C" d="M405.112,1432.475c8.396-1.474,14.775,2.692,14.713,12.723c0.027,10.017-6.233,16.398-14.629,17.872
				c-8.485,1.488-14.864-2.677-14.889-12.693C390.368,1440.345,396.716,1433.948,405.112,1432.475z M433.46,1428.412l14.582-2.559
				l-34.157,70.128l-14.583,2.558L433.46,1428.412z M400.823,1448.532c0.006,4.19,1.57,5.828,4.221,5.363
				c2.651-0.465,4.358-2.678,4.352-6.867c-0.006-4.189-1.657-5.813-4.309-5.348C402.435,1442.146,400.817,1444.343,400.823,1448.532
				z M442.326,1461.293c8.396-1.474,14.686,2.707,14.624,12.739c0.027,10.017-6.233,16.398-14.629,17.872
				c-8.396,1.473-14.774-2.692-14.713-12.724C427.582,1469.163,433.93,1462.766,442.326,1461.293z M437.949,1477.366
				c0.006,4.189,1.57,5.828,4.309,5.348c2.563-0.45,4.271-2.662,4.264-6.852s-1.657-5.813-4.22-5.363
				C439.65,1470.964,437.943,1473.176,437.949,1477.366z"></path><g><path fill="#F2CD33" d="M1787.571,1753.844l-61.688,171.325c0,0,102.402,73.44,107.082,70
			c4.68-3.44,100.714-159.603,100.714-159.603L1787.571,1753.844z"></path><path fill="#DBA12C" d="M1832.362,1840.597c7.205,4.555,9.127,11.927,2.336,19.311c-6.715,7.432-15.64,7.947-22.845,3.392
				c-7.281-4.603-9.203-11.974-2.487-19.407C1816.156,1836.509,1825.156,1836.042,1832.362,1840.597z M1856.076,1856.65
				l12.515,7.911l-72.436,28.942l-12.514-7.911L1856.076,1856.65z M1818.39,1849.599c-2.813,3.106-2.757,5.369-0.482,6.807
				c2.275,1.439,5.026,0.949,7.838-2.157c2.813-3.105,2.682-5.417,0.407-6.855
				C1823.878,1845.956,1821.203,1846.494,1818.39,1849.599z M1840.531,1886.95c7.206,4.555,9.051,11.879,2.26,19.263
				c-6.715,7.432-15.639,7.948-22.845,3.392c-7.205-4.555-9.126-11.926-2.335-19.311
				C1824.326,1882.862,1833.326,1882.395,1840.531,1886.95z M1826.485,1895.904c-2.812,3.106-2.757,5.369-0.406,6.855
				c2.2,1.391,4.951,0.901,7.763-2.204c2.812-3.106,2.681-5.417,0.482-6.807C1832.048,1892.309,1829.297,1892.798,1826.485,1895.904
				z"></path></g></g></svg>