<svg xmlns="http://www.w3.org/2000/svg" width="3797.42" height="2844.38" enable-background="new 0 0 4000 3000" viewBox="124.09 101.01 3797.42 2844.38" id="woman-taking-selfie"><path fill="#ffbdbd" d="M1251.7 1194.9c480.9 0 870.7 389.8 870.7 870.7 0 212.7-76.3 407.6-203 558.8H584c-126.7-151.2-203-346.1-203-558.8 0-480.8 389.8-870.7 870.7-870.7z"></path><circle cx="2011.7" cy="1307.9" r="1077.6" fill="#ffbdbd"></circle><path fill="#ffbdbd" d="M2581.7 1478.4c521.3 0 943.9 422.6 943.9 943.9 0 69.4-7.6 137-21.8 202.2H1659.6c-14.2-65.1-21.8-132.8-21.8-202.2 0-521.3 422.6-943.9 943.9-943.9z"></path><circle cx="3322.9" cy="1494.2" r="163.1" fill="#ffbdbd"></circle><circle cx="701" cy="1112.4" r="123.9" fill="#ffbdbd"></circle><circle cx="858.9" cy="847.5" r="41.3" fill="#ffbdbd"></circle><circle cx="3186.3" cy="1109.3" r="52.8" fill="#ffbdbd"></circle><ellipse cx="2022.8" cy="2669.6" fill="#ff9696" rx="1726.1" ry="146.5"></ellipse><path fill="#ffeded" d="m1699.4 591.9-7.5-4-3.8 11.7 7.5 2z"></path><path fill="#ffeded" d="m1621.7 611.8 74.7-20.3c2.8-.8 5.4 3.3 5.7 9.1l7.5 141.8c.3 5.8-1.8 11.2-4.6 11.9l-74.7 20.3c-2.8.8-5.4-3.3-5.7-9.1l-7.5-141.8c-.3-5.8 1.8-11.1 4.6-11.9z"></path><ellipse cx="1473.9" cy="2594" fill="#f57070" rx="422" ry="54.9"></ellipse><ellipse cx="2287.3" cy="2692.3" fill="#f57070" rx="521.9" ry="67.9"></ellipse><ellipse cx="3038" cy="2669.6" fill="#f57070" rx="290.9" ry="37.8"></ellipse><path fill="#333" d="m2216.9 2546.5-20.9 27.4c-23.3 30.5-53 55.6-87 73.5-11.5 6.1-17.1 19.6-13.1 32 17.6 55.3 103.5 50.7 147.8 39.4 34.8-8.9 71.9-28.6 107.7-25.9 13.5 1 26.4-5.8 33.1-17.6l-10.4-45.1c-3.1-22.9-3.5-54.5-7.5-77.2-2.4-13.7-12.5-24.9-25.9-28.6-13.4-3.8-27.8.5-37 11l-86.8 11.1z"></path><path fill="#fff" d="M2135.9 2631.1c-8.6 5.9-17.6 11.4-26.9 16.3-11.5 6.1-17.1 19.6-13.1 32 17.6 55.3 103.5 50.7 147.8 39.4 34.8-8.9 71.9-28.6 107.7-25.9 13.5 1 26.4-5.8 33.1-17.6l-10.4-45.1c-.9-6.9-1.6-14.6-2.2-22.6-15.9 2.1-29.7 12.9-35.2 28.5-12.3 35.1-49.9 54.5-85.7 44.1-9.7-2.8-20.1-2.2-29.4 1.7-9.2 3.9-19.8.3-24.8-8.4-13.2-23.3-36-38.3-60.9-42.4zM1740 911.8c-30.9-35.3-71.1-84.1-94.8-143.2-5.5 4.3-11.4 7.7-17.5 10.8.9 83 51 122 112.3 132.4zM2136.9 864.9l70 334.5 110.2 320.4 32.5-16.9.8-222.8c.3-90.8-24.5-133.1-62.5-167.6L2246.6 844l-109.7 20.9z"></path><ellipse cx="2213.8" cy="917" fill="#fff" rx="135.8" ry="143"></ellipse><path fill="#333" d="m1894.9 2507.6-26.6 23.9c-29.7 26.7-65.3 47.1-104.2 59.7-13.2 4.3-21.3 16.8-19.1 29.7 9.8 57.3 101.8 65.6 150.6 61 38.4-3.6 81-17.6 118.6-9.5 14.2 3 29-1.8 38-12.5l-3.8-46.1c.4-23.1 5-54.4 4.4-77.4-.4-13.9-9.3-26.5-22.9-32.2-13.7-5.7-29.6-3.6-41.1 5.4l-93.9-2z"></path><path fill="#fff" d="M1771.7 2588.7c-2.5.9-5.1 1.8-7.7 2.6-13.2 4.3-21.3 16.8-19.1 29.7 9.8 57.3 101.8 65.6 150.6 61 38.4-3.6 81-17.6 118.6-9.5 14.2 3 29-1.8 38-12.5l-3.8-46.1c.1-4.1.3-8.5.6-13.1-23.8.8-46.8 9.1-65.6 23.7-23.2 17.9-53.4 23.8-81.6 15.9-21.2-5.9-43.8-5.3-64.6 1.9-15.2 5.3-31.8-2.7-37.3-17.8-5.2-14.8-15.2-27.3-28.1-35.8zM2151 498.2l47.4.6 9.8 13c20.5 27.3 35 59 42.7 92.8 11.1 49.1 40.6 68.5 87.3 80.5 47.5 12.2 82.1 55.3 85.4 106.6 3.3 51.3-25.4 99-70.9 117.8-45.5 18.8-97.4 4.5-128.3-35.5l-141.6-197.3 68.2-178.5z"></path><circle cx="2202.7" cy="909.8" r="135.8" fill="#1a1a1a"></circle><ellipse cx="2098.4" cy="542.5" fill="#fff" rx="137.6" ry="126.6"></ellipse><ellipse cx="2067" cy="565" fill="#ffe3e3" rx="117.9" ry="368.5" transform="rotate(-82.432 2066.94 564.949)"></ellipse><path fill="#333" d="m1966.2 513.6-2.9-17.4c-31.3 40.7-46.4 108.4-38.3 149 5.3 26.5-8.8 53.1-33.8 63.4-36 14.9-61.2 47.9-66.2 86.5s11.2 76.9 42.2 100.4c31.1 23.5 72.3 28.5 108.1 13.2l130.6-80 17.2-153.4-156.9-161.7z"></path><path fill="#1a1a1a" d="m1955.7 657.5 5.1 26c4.4 22.5.4 45.8-11.3 65.5-20 33.7-17.6 76.2 6.1 107.4 23.7 31.3 63.9 45 101.8 34.9l43.8-162.2-94.4-47.6-51.1-24z"></path><path fill="#ffe3e3" d="m1613.3 607.2 74.7-20.3c2.8-.8 5.4 3.3 5.7 9.1l7.5 141.8c.3 5.8-1.8 11.2-4.6 11.9l-74.7 20.3c-2.8.8-5.4-3.3-5.7-9.1l-7.5-141.8c-.3-5.8 1.7-11.2 4.6-11.9z"></path><path fill="#333" d="m2135.2 513.8 47.4.5 9.8 12.4c20.5 26 35 56.1 42.7 88.3 11.1 46.7 40.6 65.2 87.3 76.6 47.6 11.6 82.1 52.6 85.4 101.5 3.3 48.8-25.4 94.2-70.9 112.1-45.5 17.9-97.5 4.3-128.3-33.7L2067 683.6l68.2-169.8z"></path><path fill="#e34814" d="m2006.4 798.8-60.3 20c-19.4 6.5-40.9 25.4-50.8 43.3-9.9 17.9-12.2 39.1-6.3 58.7l116.1-63.2 1.3-58.8z"></path><path fill="#1a1a1a" d="m2158.6 715.5 17.2 5.4c26.6 8.3 53.9 14.4 81.6 18.1l4.1 1.5c34.6 12.4 58.9 43.7 62.4 80.3 3.5 36.6-14.4 71.9-46 90.7l-28.3 1.4-126.4-85.6-37.4-132.6 38.4-35.6 34.4 56.4z"></path><path fill="#e34814" d="M1990.7 821.6 1740 911.8c-40.4-37.7-97.2-94.9-117.7-169.9l-18.9 3c-10.3 143.6 24.7 245.2 112.7 268.6l157.7-41.1 116.9-150.8z"></path><path fill="#f63" d="M1740 911.8c-30.8-28.7-71.1-68.8-97.6-119.5-4.5 4.3-9.5 7.9-14.6 11.2 8.2 74.2 56.5 104.5 112.2 108.3z"></path><path fill="#fff" d="M1854.8 915.6c-18 13.9-28.6 35.3-28.6 58.1 0 22.8 10.6 44.2 28.6 58.1l-29.2 58.1 29.2 21c94.2 67.6 220.3 70.2 317.1 6.5l72-190.4c42.2-111.5-2.4-209.8-87.7-180.1L2006.4 799l-151.6 116.6z"></path><path fill="#ffe3e3" d="M1833.5 941.9c-4.7 9.8-7.2 20.6-7.2 31.8 0 22.8 10.6 44.2 28.6 58.1l-29.2 58.1 29.2 21c94.2 67.6 220.3 70.2 317.1 6.5l26.6-70.3-56.4-263.6-45.5 42c-25 23.1-48.9 47.3-71.7 72.6-27.3 30.3-68.2 44.5-108.4 37.6-16.3-2.8-33-1-48.2 5.2-11.6 4.5-23.9 4.7-34.9 1z"></path><path fill="#f63" d="m2147.3 749.8-3 1c-22.7-29.1-23.4-55.7-13.6-91.4l8.9-32.3-80 61.6c1.4 27.5-1.3 55-8 81.6-2.2 8.9-8.3 15.5-17 18.6l-1.3.5-37.8 34.6c-12.4 11.3-16.1 22.5-5.4 19.6 74.2-20 101.1-70.1 157.2-93.8z"></path><path fill="#e34814" d="m2082.4 671.3-22.6 17.4c1.4 27.5-1.3 55-8 81.6-1 4-2.8 7.6-5.2 10.5 2.6-1.1 5.2-2.3 7.7-3.6 28.9-14.6 50.5-40.5 59.9-71.5l10.7-35.4-42.5 1zM1825.6 1593.8l105.4 461-3.2 519h75.7l47.8-138.9c51.7-150.3 49.9-300.9-5.2-419.3l17-464-237.5 42.2z"></path><path fill="#f63" d="m1974.2 1593.8 201 461 90.5 519h68.2l28.1-138.9c30.4-150.3 17.1-300.9-65.7-419.3l-65.1-464-257 42.2z"></path><path fill="#e34814" d="M2370.9 2207.9c-4.3-28.9-11-57.2-20.2-84.5l-130.1 33.9 16.3 109.9 2.4-20.7c3.7-31.6 27-57.4 58.1-64.2 27.6-5.9 55.9 4.2 73.5 25.6zM2265 1792.1l-29.8-212.2-77.4-16.2-67.6 11.1-47.3 109.9h32c78.9 0 150.6 41.8 190.1 107.4z"></path><path fill="#ffe3e3" d="m1825.6 1303.5-18.8 350.5 18.8 8.1c73.3 31.4 156.5 30.1 228.7-3.7l-228.7-354.9z"></path><path fill="#fff" d="m2070.6 1231.6 15.6 44.7 51.3 34.7c87.8 59.5 133.4 163.4 120.4 274.2-61.9 83-179.9 124.2-272.1 109.2l-160.2-390.8 12.9-57.1 232.1-14.9z"></path><path fill="#f63" d="m1838.4 1246.5 38-166.2 265.8 7-71.6 144.3z"></path><path fill="#e34814" d="m1868.3 1115.7 8.1-35.4c87.2-23.9 175.9-20.4 265.8 7l-54.8 110.4c-56.3-60.2-137.5-90.4-219.1-82z"></path><ellipse cx="2171.3" cy="843.6" fill="#f63" rx="64.1" ry="77.3"></ellipse><path fill="#f63" d="m2109.7 864.9 83.9 334.5 114.5 320.4 41.5-16.7-9.2-223c-3.7-90.8-30-133.1-69.5-167.6L2218.4 844l-108.7 20.9z"></path><path fill="#e34814" d="M2139 981.9c17.8 49.5 29.6 139.8 84.5 141-40.8 49.5 9.3 158.1 24.3 217.2l-54.2-140.7-54.6-217.5z"></path><path fill="#f63" d="M2053.9 490.1c134.3-5.3 108 54.8 111.2 127.5s-121.4 136.6-149.5 137.7c-28.1 1.1-70-98.3-61.4-129.5 3.4-12.1-5.7-34.2-4.5-57.5 1.8-36.4 22.2-75 104.2-78.2z"></path><path fill="#e34814" d="m2002.5 600.4-1.3 7.9c-.9 5.3.9 10.5 5 14.6 4.1 4 10.1 6.5 16.6 6.8l24.4-6.8 3.5-3.2c1.9-1.8 4.6-2.8 7.5-2.9 2.8-.1 5.5.7 7.4 2.3l3.4 3.3-8.7-27.2-3.8-.4-16.2-5.4-27.6 1.6-10.2 9.4z"></path><path fill="#332d2a" d="m2001.1 589 1.4 11.4 12.1-4.3c13.5-4.8 28.6-5.2 42-1.1l-6-4.7c-7.3-5.7-17.8-7.9-28.1-5.8-5.8 1.2-11.5 2.4-17.3 3.8l-1.3 7.4-2.8-6.7zM2031.7 600.8c-13.4.8-25.2 8-26.4 16-1.2 8 8.7 13.8 22.1 12.9 13.4-.8 25.2-8 26.4-16 1.2-7.9-8.7-13.7-22.1-12.9z"></path><path fill="#fff" d="M2031.6 606.8c-11.1.7-21 6.7-22 13.3-1 6.6 7.2 11.5 18.4 10.8 11.1-.7 21-6.7 22-13.3s-7.2-11.5-18.4-10.8z"></path><path fill="#332d2a" d="M2024.6 604c-6.8-.4-12.6 4.6-12.9 11.3-.3 6.7 5 12.4 11.8 12.9s12.6-4.6 12.9-11.3c.3-6.7-5-12.4-11.8-12.9z"></path><path fill="#fff" d="M2015.9 613.5c-2.4-.2-4.4 1.6-4.5 3.9-.1 2.3 1.7 4.3 4.1 4.5 2.4.2 4.4-1.6 4.5-3.9.1-2.3-1.8-4.3-4.1-4.5z"></path><path fill="#e34814" d="M2014 755.2c-28.1-2.3-68.4-98.8-59.9-129.4 3.4-12.1-5.7-34.2-4.5-57.5.9-18.2 6.5-36.9 22-51.5l11.3-3.2c-6.8 37.7-17.5 81.7-11.8 92.8 4 8.9 12.9 22.4 1.9 44.8-1.6 3.3-1.4 7.3.6 10.4 2 3.1 5.5 4.9 9.2 4.8 4.4-.2 9.7 12.4 8.9 17.4-1.7 10-.7 20 7.5 30.3-3.4 16.7-3 32.2 14.8 41.1z"></path><path fill="#333" d="M1939.1 551.1c4.3-20.7 12.7-38.8 24.3-55 31.6-22.2 166.7-15.3 219.2 18.1l15.7 144.6-39.6 56.6-18.5-6.9c-52.7-19.6-89.5-67.6-94.6-123.6a80.83 80.83 0 0 0-62.6-71.5l-8.6 8.3c-14 13.6-26.2 32.8-25.9 52.3l-9.4-22.9z"></path><path fill="#1a1a1a" d="M1963.3 496.2c31.6-22.2 166.7-15.3 219.2 18.1l9.8 12.4c20.5 26 35 56.1 42.7 88.3 2.8 11.7 6.7 21.6 11.7 30-55.6-92-155.4-148.9-263.8-148.9l-19.6.1z"></path><path fill="#e34814" d="m1603.8 795.8-1.9-79.6 64.9-6.1c10 47.6-14.8 79.4-41.4 94.9l-21.6-9.2z"></path><path fill="#e34814" d="M1675.4 661c3.7 1.5 10.8 21.3-1.5 38.8-12.3 17.5-4 32.6-21 30.8-17.1-1.8 1.6-17 7.8-36.2 6.2-19.3 11.1-34.9 14.7-33.4zM1621.7 646.7c-4.5.8-26.3 25.3-22.4 54.5 1 7.6 2.3 17 2.9 28.6.6 12.2 12.5 17.5 19.1 17.5 10.9 0-12.9-50.3-3.4-66.2 9.6-16 8.3-35.2 3.8-34.4z"></path><path fill="#e34814" d="M1657.3 635.5c-5.9 0-32.7 21.3-36.9 47.6-4.2 26.3-10.3 47.6 7.1 47.6 17.3 0 4.5-35.2 14.5-47.6 9.9-12.4 21.3-47.6 15.3-47.6z"></path><path fill="#e34814" d="M1664.2 645.5c-5.1-.7-18.7 16.1-24.9 38.2-6.2 22.1-11.9 41.7 2.3 41.7s3.5-22.5 16.1-39.3c12.7-16.9 11.6-40 6.5-40.6z"></path><path fill="#900" d="M2027.6 694.9c-6.5-.3-12.9-8.6-27.6-9.5-3.4-.2-6.6 1.2-8.6 3.8l-1.9-.7c-2.9-1-5.9-.3-7.8 1.7-1.9 2-2.4 5.1-1.2 8l2.5 1.2c.5 6.8 2.9 17.1 14.2 18.7 15 2.1 25.5-6.2 26.5-20.3 2.3-.5 3.8-1.5 3.9-2.9z"></path><path fill="#fff" d="M2018.3 698.8c-17.7 4.6-27.6 4.4-29.3.2 3.4-1.6 12.1-1.9 29.3-.2z"></path><path fill="#cc3e0e" d="m1954.1 625.7 12.2 10.3c4.3.1 8.1 2.2 10.4 5.4 2.8-10.2 1.4-18.2-.9-24.6-.6-1.5-1.2-3-1.9-4.4l-2.2-4.8-.2-.4-.4-.8-3.1-2.1-15.5-3.9c1.8 10.2 3.3 19.1 1.6 25.3z"></path><path fill="#333" d="m1971.1 606.3-5.3-10.2 1.1 4.6-3.1-5.8c-10.6-6.2-16.2-6.4-18.5-1.9l2.5 11.9c1.6-6.3 4.9-5.8 23.3 1.4zM1961.2 609.1c6.9.8 12.4 7.6 12.4 15.2s-5.6 13.2-12.4 12.4-12.4-7.6-12.4-15.2 5.6-13.2 12.4-12.4z"></path><path fill="#fff" d="M1963.6 614.2c5.7.6 10.3 6.3 10.3 12.7 0 6.4-4.6 11-10.3 10.4-5.7-.6-10.3-6.3-10.3-12.7 0-6.4 4.6-11 10.3-10.4z"></path><path fill="#333" d="M1967.8 614.3c-4.9-2.4-10.4-1.3-13.6 3.1-.2.3-.4.7-.6 1-.6 3.7.2 7.9 2.5 10.9 3.4 4.5 8.6 4.7 11.7.4 2.8-4.2 2.8-10.9 0-15.4z"></path><path fill="#fff" d="M1955.2 619.9c1-.1 1.9 1.2 1.9 2.9s-.8 3.1-1.9 3.2c-1 .1-1.9-1.2-1.9-2.9s.9-3.1 1.9-3.2z"></path><path fill="#e34814" d="M1986 660.3h5.4c1.8 0 3.3.6 3.7 1.5.4.9-.5 1.7-2.1 2.1-1.6.4-3.5.1-4.6-.6-1.3-.9-2.1-3-2.4-3zM1875.6 1197.5c4.9 0 7.5 7.6 5.9 17.1s-6.9 17.1-11.7 17.1c-4.9 0-7.5-7.6-5.9-17.1s6.9-17.1 11.7-17.1z"></path><path fill="#333" d="m1612.8 614.2 33.4-8.6c1.2-.3 2.3 1 2.4 2.9l.6 11c.1 1.9-.8 3.7-2.1 4.1l-33.4 8.6c-1.2.3-2.3-1-2.4-2.9l-.6-11c-.1-2 .8-3.8 2.1-4.1z"></path><path fill="#fff" d="M2123 667.1c35.8 26.1 78.9 38.4 127.1 46.3 56.8 9.3 101 28.1 95.6 113.1 22.3-67.8-18.9-110.9-92.3-121.2-34-4.9-88.2-12.1-130.4-38.2zM2373.3 766.3c12 48.2 4.2 89.5-39.7 125.7l12.4-8c39.5-25.3 51.6-77.5 27.3-117.7zM2123 592.8c20.9 52.2 56.2 79.3 112.9 86.4l-13.6-5.8c-39.9-16.9-78.8-42.5-99.3-80.6z"></path><path fill="#ffe3e3" d="M2142.2 1374.7c-104.6-5.6-146.6-26.7-143.7-58.8 27.6 18.8 75.9 38.4 143.7 58.8z"></path><path fill="#333" d="m1829.2 1208.1 38.8 3.7c9.1.9 17.2 11 18.1 22.7l3.5 47.3c.9 11.7-5.8 20.5-14.9 19.6l-38.8-3.7c-9.1-.9-17.2-11-18.1-22.7l-3.5-47.3c-.9-11.7 5.8-20.5 14.9-19.6z"></path><path fill="#333" d="M1855.9 1227.9c91.1 3.7 198.3-1.8 226-19.2l7.5-15.1 10.1 12.7 2.3 52c-31.6 24.5-158.3 29.3-244.8 25.8l-1.1-56.2z"></path><path fill="#fff" d="m1830.5 1226.1 16.8 1.3c3.9.3 7.5 6.1 7.8 12.9l1.5 27.7c.4 6.8-2.5 12.1-6.5 11.8l-16.8-1.3c-3.9-.3-7.5-6.1-7.8-12.9l-1.5-27.7c-.3-6.8 2.6-12.1 6.5-11.8z"></path><path fill="#e34814" d="m2172.4 2048.3 55.3 29.3c30.3 156 58.8 271.9 27.4 435.3l-82.7-464.6z"></path><ellipse cx="2274.6" cy="2573.8" fill="#333" rx="62.1" ry="73.5"></ellipse><path fill="#fff" d="M2268.5 2580.6c2.1 1.7 2.4 4.8.7 6.9-1.7 2.1-4.8 2.4-6.9.7-11.5-9.4-23-15.2-33.2-18.2-11.4-3.3-21.1-3.1-27.6-.2-2.5 1.1-5.4 0-6.4-2.5-1.1-2.5 0-5.4 2.5-6.5 8.4-3.7 20.5-4.2 34.2-.2 11.5 3.4 24.2 9.8 36.7 20zM2250.5 2607.1c2 1.8 2.1 4.9.2 6.9-1.8 2-4.9 2.1-6.9.2-11.2-10.4-21.7-16.5-31.8-19.7-10-3.1-19.6-3.3-29-2-2.7.4-5.1-1.5-5.5-4.2-.4-2.7 1.5-5.1 4.2-5.5 10.7-1.5 21.7-1.2 33.2 2.4 11.4 3.5 23.2 10.3 35.6 21.9zM2225 2629.2c1.8 2 1.6 5.1-.5 6.9-2 1.8-5.1 1.6-6.9-.5-7.8-8.9-16.7-15.5-25.8-19.7-9.4-4.4-18.9-6.1-27.2-5.2-2.7.3-5.1-1.6-5.4-4.3-.3-2.7 1.6-5.1 4.3-5.4 10.1-1.1 21.3 1 32.4 6.1 10.3 4.8 20.4 12.2 29.1 22.1z"></path><ellipse cx="2221.5" cy="2633.4" fill="#fff" rx="11.1" ry="8.9"></ellipse><ellipse cx="2246.2" cy="2613.2" fill="#fff" rx="11.1" ry="8.9"></ellipse><path fill="#fff" d="M2228.6 1843.5c-.4 3.6-3.7 6.1-7.3 5.6-3.6-.4-6.1-3.7-5.6-7.3l36.2-284.2c.4-3.6 3.7-6.1 7.3-5.6 3.6.4 6.1 3.7 5.6 7.3l-36.2 284.2zM2306.7 1552.4c-.4-3.6 2.1-6.8 5.7-7.2 3.6-.4 6.8 2.1 7.2 5.7l31.8 265.1c.4 3.6-2.1 6.8-5.7 7.2-3.6.4-6.8-2.1-7.2-5.7l-31.8-265.1z"></path><ellipse cx="2265.5" cy="2588.7" fill="#fff" rx="11.1" ry="8.9"></ellipse><path fill="#ffe3e3" d="m2442.7 1753.7-300.7-12-99.2 382.1 139.4 47.1z"></path><path fill="#fff" d="m2179.3 1753.7 294.7-35 105.1 405.1-396.9 47.1z"></path><path fill="#ffe3e3" d="m2142 1741.7 37.3 12 294.7-35-63.9-9.3z"></path><path fill="#ffd1d1" d="m2042.8 2123.8 139-10.4-2.5-359.7-37.3-12z"></path><path fill="#ffe3e3" d="m1532 2174.2-344.8-31.3-113.7 432.3 159.8 62.1z"></path><path fill="#fff" d="m1229.9 2158.8 338-22.9 120.5 470.5-455.1 30.9z"></path><path fill="#ffe3e3" d="m1187.2 2142.9 42.7 15.9 338-22.9-73.3-14.4z"></path><path fill="#ffd1d1" d="m1073.5 2575.2 159.4-3.8-3-412.6-42.7-15.9z"></path><path fill="#ffe3e3" d="m2863.5 2348 256.3-23.3 84.5 321.4-118.8 46.2z"></path><path fill="#fff" d="m3088 2336.6-251.3-17.1-89.6 349.8 338.4 23z"></path><path fill="#ffe3e3" d="m3119.8 2324.7-31.8 11.9-251.3-17.1 54.5-10.7z"></path><path fill="#fff" d="M2322.7 1569c-.8-3.5 1.4-7 5-7.8 3.5-.8 7 1.4 7.8 4.9l57.8 260.7c.8 3.5-1.4 7-5 7.8-3.5.8-7-1.4-7.8-5l-57.8-260.6z"></path><path fill="#e34814" d="M2349.9 1571.5c-6.8 22.6-23.2 22-35.1 32.4-7.4 4.7-16.6 5.7-24.8 2.8h-25c-6.9 0-13.4-3.1-17.6-8.5-5.5-6.9-11.4-13.4-17.8-19.4-2.5-2.4-3.1-6.2-1.4-9.2 1.7-3 5.3-4.5 8.6-3.6l11-5c6.1-2.8 13-3 19.2-.5l8.4-2.7c11.2-3.5 23.5-1.3 32.7 6l41.8 7.7z"></path><path fill="#ffd1d1" d="m3204.3 2646.1-118.4-2.8 2.1-306.7 31.8-11.9z"></path><path fill="#f63" d="m2297 1464.1-26.2 21.9c-12.3 10-20.4 26-22.1 43.4-1.5 16.4-7.6 32-17.2 44.3-2.2 2.8-2.5 6.9-.8 9.9s5.1 4 8 2.5c4.4-2.4 8.6-4.9 12.8-7.7 4.2-2.8 7.1-8 7.4-13.7.6-8.8 5.7-16.4 12.8-19.1l3.5 22.6c1.2 7.7 7.7 13.3 15.5 13.3h46.5c3.6 0 6.7-1.3 9.3-3.9 2.5-2.6 3.8-5.7 3.8-9.3l-.6-65.1-52.7-39.1z"></path><path fill="#fff" d="M2271 1841.1c0 3.6-3 6.5-6.6 6.4-3.6 0-6.5-3-6.4-6.6l3.6-281c0-3.6 3-6.5 6.6-6.4 3.6 0 6.5 3 6.4 6.6l-3.6 281z"></path><path fill="#ffd1d1" d="M1494.6 2202.3c-.6-3.6 1.8-6.9 5.4-7.5 3.5-.6 6.9 1.8 7.5 5.4l21.8 130.3c.5 3 .9 6.1 1.1 9 1.5 21.6-4.8 41.5-16.6 57-11.9 15.5-29.3 26.5-50.1 30-2.7.4-5.4.8-8.2 1-24.2 1.7-47.9-6.9-66.5-22.1-18.6-15.1-32.1-36.8-36.3-61.5l-21.8-130.3c-.6-3.6 1.8-6.9 5.4-7.5 3.6-.6 6.9 1.8 7.5 5.4l21.8 130.3c3.6 21.4 15.4 40.3 31.6 53.5 16.1 13.2 36.6 20.6 57.4 19.2 2.4-.2 4.7-.4 6.9-.8 17.4-2.9 32-12.1 41.9-25 10-13 15.2-29.9 14-48.2-.2-2.6-.5-5.2-.9-7.7l-21.9-130.5z"></path><ellipse cx="1334.6" cy="2213.4" fill="#ffd1d1" rx="19.1" ry="18.7"></ellipse><ellipse cx="1496" cy="2200.9" fill="#ffd1d1" rx="19.1" ry="18.7"></ellipse><path fill="#ffd1d1" d="M2893.9 2382.3c.4-2.5-1.3-4.8-3.7-5.2-2.4-.4-4.8 1.2-5.2 3.7l-15 90c-.3 2.1-.6 4.2-.7 6.2-1 14.9 3.3 28.7 11.5 39.4s20.3 18.3 34.6 20.7c1.9.3 3.8.5 5.7.7 16.7 1.1 33.1-4.8 45.9-15.3 12.8-10.4 22.2-25.5 25-42.5l15-90c.4-2.5-1.2-4.8-3.7-5.2-2.5-.4-4.8 1.3-5.2 3.7l-15 90c-2.5 14.8-10.7 27.9-21.8 37-11.2 9.1-25.3 14.2-39.7 13.3-1.6-.1-3.2-.3-4.8-.6-12-2-22.1-8.3-28.9-17.3-6.9-9-10.5-20.7-9.7-33.3.1-1.8.3-3.6.6-5.4l15.1-89.9z"></path><ellipse cx="3004.5" cy="2389.9" fill="#ffd1d1" rx="13.2" ry="12.9"></ellipse><ellipse cx="2893" cy="2381.4" fill="#ffd1d1" rx="13.2" ry="12.9"></ellipse><path fill="#333" d="M1932.3 2451.6c20.3 0 28.8 32.9 18.8 73.5-9.9 40.6-34.5 73.5-54.8 73.5s-28.8-32.9-18.8-73.5c9.9-40.5 34.4-73.5 54.8-73.5z"></path><path fill="#333" d="m1954.7 2504.5.6 9.6c0 15 9.8 28.2 24.2 32.5 14.4 4.3 29.8-1.3 38.1-13.9l15.4 22-30.1 55.5-1 .2-106.2-18 .4-1.3 15.6-39.7 43-46.9z"></path><path fill="#fff" d="M1899.1 2550.1c1.9 1.9 2 5 .1 6.9-1.9 1.9-5 2-6.9.1-6.3-6.2-15.7-10.2-24-12-3.9-.9-7.4-1.2-10.2-1.1-1.6.1-2.8.2-3.3.4-.9 2.1-3.2 3.3-5.6 2.8-2.6-.6-4.3-3.2-3.7-5.8.3-1.4 1-2.6 2-3.7 2.1-2.2 5.7-3.3 10.2-3.5 3.6-.1 8 .3 12.7 1.3 9.8 2.3 21 7.1 28.7 14.6zM1868.1 2563.8c2 1.8 2.2 4.9.4 6.9-1.8 2-4.9 2.2-6.9.4-5.6-5-16.2-8.7-24.3-9.9-2.4-.4-4.5-.5-6.1-.4-.6 1.4-1.9 2.5-3.5 2.8-2.7.5-5.2-1.2-5.7-3.9-.3-1.6-.1-3 .6-4.3 1.3-2.5 4-3.9 7.6-4.3 2.4-.2 5.3-.1 8.5.4 9.6 1.4 22.3 6 29.4 12.3zM1831.9 2575.5c2 1.8 2.3 4.8.5 6.9-1.8 2-4.8 2.3-6.9.5-1.1-1-2.6-2.1-4.3-3.3-3.2-2.2-7.1-4.6-10.7-5.6-2.5-.7-4.7-.8-5.9.6l-.3.3c-1.6 2.2-4.6 2.7-6.8 1.2-2.2-1.6-2.7-4.6-1.2-6.8.3-.4.5-.7.9-1.1 4.2-4.9 10-5.3 16-3.6 4.8 1.4 9.8 4.3 13.7 7 2 1.3 3.7 2.7 5 3.9z"></path><ellipse cx="1831.3" cy="2581.9" fill="#fff" rx="9.4" ry="8"></ellipse><ellipse cx="1864.7" cy="2569.7" fill="#fff" rx="9.4" ry="8"></ellipse><ellipse cx="1894.7" cy="2555.1" fill="#fff" rx="9.4" ry="8"></ellipse><path fill="#ffd6d6" d="M961.8 2080.5c77.1 0 139.6 62.5 139.6 139.6s-62.5 139.6-139.6 139.6-139.6-62.5-139.6-139.6 62.5-139.6 139.6-139.6zm1613.7-1079.7c55.9 0 101.3 45.3 101.3 101.3 0 55.9-45.3 101.3-101.3 101.3s-101.3-45.3-101.3-101.3 45.4-101.3 101.3-101.3zm-69.5 569.5c17.6 0 31.8 14.2 31.8 31.8s-14.2 31.8-31.8 31.8-31.8-14.2-31.8-31.8c0-17.5 14.3-31.8 31.8-31.8zm344.9 380.2c50.8 0 91.9 41.2 91.9 91.9 0 50.8-41.2 91.9-91.9 91.9-50.8 0-91.9-41.2-91.9-91.9s41.2-91.9 91.9-91.9zm-1525.5-380.2c47.3 0 85.7 38.4 85.7 85.7 0 47.3-38.4 85.7-85.7 85.7-47.3 0-85.7-38.4-85.7-85.7 0-47.3 38.4-85.7 85.7-85.7zM1163.7 969c17.6 0 31.8 14.2 31.8 31.8s-14.2 31.8-31.8 31.8-31.8-14.2-31.8-31.8 14.2-31.8 31.8-31.8zm-240.6 772.8c8.4 0 15.2 6.8 15.2 15.2s-6.8 15.2-15.2 15.2c-8.4 0-15.2-6.8-15.2-15.2s6.8-15.2 15.2-15.2z"></path><path fill="#fff" d="M2348.6 1478.7c4.6 4.2 7.9 8.7 9.6 13.1 2 4.9 2 9.7-.1 13.9-.6 1.3-1.5 2.5-2.5 3.6-5.1 5.6-14.3 8.2-25.2 7.8-10.3-.3-22.3-3.3-33.4-8.8-6.6-3.2-12.2-7-16.5-11-4.7-4.3-8.1-8.9-9.9-13.4-2-4.9-2-9.7.1-13.9.6-1.3 1.5-2.5 2.5-3.6 3.1-3.4 7.8-5.7 13.4-6.9l2.3 6.4c-4.7.8-8.4 2.5-10.7 5-.6.7-1.1 1.3-1.4 2-1.2 2.4-1.1 5.3.2 8.4 1.4 3.5 4.2 7.3 8.2 10.9 3.9 3.6 9 7 15 10 10.3 5.1 21.2 7.8 30.7 8.1 8.9.3 16.3-1.6 19.9-5.6.6-.6 1.1-1.3 1.4-2 1.2-2.4 1.1-5.3-.2-8.4-.7-1.6-1.6-3.3-2.9-5.1l-.5-10.5z"></path></svg>